# Blender 4.3.2
# www.blender.org
mtllib RingBorder.mtl
o Circle
v 0.000000 0.000000 -1.000000
v -0.195090 0.000000 -0.980785
v -0.382683 0.000000 -0.923880
v -0.555570 0.000000 -0.831470
v -0.707107 0.000000 -0.707107
v -0.831470 0.000000 -0.555570
v -0.923880 0.000000 -0.382683
v -0.980785 0.000000 -0.195090
v -1.000000 0.000000 0.000000
v -0.980785 0.000000 0.195090
v -0.923880 0.000000 0.382683
v -0.831470 0.000000 0.555570
v -0.707107 0.000000 0.707107
v -0.555570 0.000000 0.831470
v -0.382683 0.000000 0.923880
v -0.195090 0.000000 0.980785
v 0.000000 0.000000 1.000000
v 0.195090 0.000000 0.980785
v 0.382683 0.000000 0.923880
v 0.555570 0.000000 0.831470
v 0.707107 0.000000 0.707107
v 0.831470 0.000000 0.555570
v 0.923880 0.000000 0.382683
v 0.980785 0.000000 0.195090
v 1.000000 0.000000 0.000000
v 0.980785 0.000000 -0.195090
v 0.923880 0.000000 -0.382683
v 0.831470 0.000000 -0.555570
v 0.707107 0.000000 -0.707107
v 0.555570 0.000000 -0.831470
v 0.382683 0.000000 -0.923880
v 0.195090 0.000000 -0.980785
v 0.000000 0.000000 -1.010000
v -0.197041 0.000000 -0.990593
v -0.386510 0.000000 -0.933118
v -0.561126 0.000000 -0.839784
v -0.714178 0.000000 -0.714178
v -0.839784 0.000000 -0.561126
v -0.933118 0.000000 -0.386510
v -0.990593 0.000000 -0.197041
v -1.010000 0.000000 0.000000
v -0.990593 0.000000 0.197041
v -0.933118 0.000000 0.386510
v -0.839784 0.000000 0.561126
v -0.714178 0.000000 0.714178
v -0.561126 0.000000 0.839784
v -0.386510 0.000000 0.933118
v -0.197041 0.000000 0.990593
v 0.000000 0.000000 1.010000
v 0.197041 0.000000 0.990593
v 0.386510 0.000000 0.933118
v 0.561126 0.000000 0.839784
v 0.714178 0.000000 0.714178
v 0.839784 0.000000 0.561126
v 0.933118 0.000000 0.386510
v 0.990593 0.000000 0.197041
v 1.010000 0.000000 0.000000
v 0.990593 0.000000 -0.197041
v 0.933118 0.000000 -0.386510
v 0.839784 0.000000 -0.561126
v 0.714178 0.000000 -0.714178
v 0.561126 0.000000 -0.839784
v 0.386510 0.000000 -0.933118
v 0.197041 0.000000 -0.990593
v 0.000000 0.050000 -1.000000
v -0.195090 0.050000 -0.980785
v -0.382683 0.050000 -0.923880
v -0.555570 0.050000 -0.831470
v -0.707107 0.050000 -0.707107
v -0.831470 0.050000 -0.555570
v -0.923880 0.050000 -0.382683
v -0.980785 0.050000 -0.195090
v -1.000000 0.050000 0.000000
v -0.980785 0.050000 0.195090
v -0.923880 0.050000 0.382683
v -0.831470 0.050000 0.555570
v -0.707107 0.050000 0.707107
v -0.555570 0.050000 0.831470
v -0.382683 0.050000 0.923880
v -0.195090 0.050000 0.980785
v 0.000000 0.050000 1.000000
v 0.195090 0.050000 0.980785
v 0.382683 0.050000 0.923880
v 0.555570 0.050000 0.831470
v 0.707107 0.050000 0.707107
v 0.831470 0.050000 0.555570
v 0.923880 0.050000 0.382683
v 0.980785 0.050000 0.195090
v 1.000000 0.050000 0.000000
v 0.980785 0.050000 -0.195090
v 0.923880 0.050000 -0.382683
v 0.831470 0.050000 -0.555570
v 0.707107 0.050000 -0.707107
v 0.555570 0.050000 -0.831470
v 0.382683 0.050000 -0.923880
v 0.195090 0.050000 -0.980785
v 0.000000 0.050000 -1.010000
v -0.197041 0.050000 -0.990593
v -0.386510 0.050000 -0.933118
v -0.561126 0.050000 -0.839784
v -0.714178 0.050000 -0.714178
v -0.839784 0.050000 -0.561126
v -0.933118 0.050000 -0.386510
v -0.990593 0.050000 -0.197041
v -1.010000 0.050000 0.000000
v -0.990593 0.050000 0.197041
v -0.933118 0.050000 0.386510
v -0.839784 0.050000 0.561126
v -0.714178 0.050000 0.714178
v -0.561126 0.050000 0.839784
v -0.386510 0.050000 0.933118
v -0.197041 0.050000 0.990593
v 0.000000 0.050000 1.010000
v 0.197041 0.050000 0.990593
v 0.386510 0.050000 0.933118
v 0.561126 0.050000 0.839784
v 0.714178 0.050000 0.714178
v 0.839784 0.050000 0.561126
v 0.933118 0.050000 0.386510
v 0.990593 0.050000 0.197041
v 1.010000 0.050000 0.000000
v 0.990593 0.050000 -0.197041
v 0.933118 0.050000 -0.386510
v 0.839784 0.050000 -0.561126
v 0.714178 0.050000 -0.714178
v 0.561126 0.050000 -0.839784
v 0.386510 0.050000 -0.933118
v 0.197041 0.050000 -0.990593
vn -0.0000 -1.0000 -0.0000
vn -0.0000 1.0000 -0.0000
vn -0.6344 -0.0000 0.7730
vn -0.4714 -0.0000 -0.8819
vn -0.4714 -0.0000 0.8819
vn -0.6344 -0.0000 -0.7730
vn -0.2903 -0.0000 0.9569
vn -0.7730 -0.0000 -0.6344
vn -0.0980 -0.0000 0.9952
vn -0.8819 -0.0000 -0.4714
vn 0.0980 -0.0000 0.9952
vn -0.9569 -0.0000 -0.2903
vn 0.2903 -0.0000 0.9569
vn -0.9952 -0.0000 -0.0980
vn 0.4714 -0.0000 0.8819
vn -0.9952 -0.0000 0.0980
vn 0.6344 -0.0000 0.7730
vn -0.9569 -0.0000 0.2903
vn 0.7730 -0.0000 0.6344
vn -0.8819 -0.0000 0.4714
vn 0.8819 -0.0000 0.4714
vn -0.7730 -0.0000 0.6344
vn 0.9569 -0.0000 0.2903
vn 0.9952 -0.0000 0.0980
vn 0.9952 -0.0000 -0.0980
vn 0.9569 -0.0000 -0.2903
vn 0.8819 -0.0000 -0.4714
vn -0.0980 -0.0000 -0.9952
vn 0.7730 -0.0000 -0.6344
vn -0.2903 -0.0000 -0.9569
vn 0.6344 -0.0000 -0.7730
vn 0.4714 -0.0000 -0.8819
vn 0.2903 -0.0000 -0.9569
vn 0.0980 -0.0000 -0.9952
vt 0.000000 0.000000
s 0
f 26/1/1 58/1/1 57/1/1 25/1/1
f 13/1/1 45/1/1 44/1/1 12/1/1
f 27/1/1 59/1/1 58/1/1 26/1/1
f 14/1/1 46/1/1 45/1/1 13/1/1
f 28/1/1 60/1/1 59/1/1 27/1/1
f 15/1/1 47/1/1 46/1/1 14/1/1
f 2/1/1 34/1/1 33/1/1 1/1/1
f 29/1/1 61/1/1 60/1/1 28/1/1
f 16/1/1 48/1/1 47/1/1 15/1/1
f 3/1/1 35/1/1 34/1/1 2/1/1
f 30/1/1 62/1/1 61/1/1 29/1/1
f 17/1/1 49/1/1 48/1/1 16/1/1
f 4/1/1 36/1/1 35/1/1 3/1/1
f 31/1/1 63/1/1 62/1/1 30/1/1
f 18/1/1 50/1/1 49/1/1 17/1/1
f 5/1/1 37/1/1 36/1/1 4/1/1
f 32/1/1 64/1/1 63/1/1 31/1/1
f 19/1/1 51/1/1 50/1/1 18/1/1
f 6/1/1 38/1/1 37/1/1 5/1/1
f 1/1/1 33/1/1 64/1/1 32/1/1
f 20/1/1 52/1/1 51/1/1 19/1/1
f 7/1/1 39/1/1 38/1/1 6/1/1
f 21/1/1 53/1/1 52/1/1 20/1/1
f 8/1/1 40/1/1 39/1/1 7/1/1
f 22/1/1 54/1/1 53/1/1 21/1/1
f 9/1/1 41/1/1 40/1/1 8/1/1
f 23/1/1 55/1/1 54/1/1 22/1/1
f 10/1/1 42/1/1 41/1/1 9/1/1
f 24/1/1 56/1/1 55/1/1 23/1/1
f 11/1/1 43/1/1 42/1/1 10/1/1
f 25/1/1 57/1/1 56/1/1 24/1/1
f 12/1/1 44/1/1 43/1/1 11/1/1
f 90/1/2 89/1/2 121/1/2 122/1/2
f 77/1/2 76/1/2 108/1/2 109/1/2
f 91/1/2 90/1/2 122/1/2 123/1/2
f 78/1/2 77/1/2 109/1/2 110/1/2
f 92/1/2 91/1/2 123/1/2 124/1/2
f 79/1/2 78/1/2 110/1/2 111/1/2
f 66/1/2 65/1/2 97/1/2 98/1/2
f 93/1/2 92/1/2 124/1/2 125/1/2
f 80/1/2 79/1/2 111/1/2 112/1/2
f 67/1/2 66/1/2 98/1/2 99/1/2
f 94/1/2 93/1/2 125/1/2 126/1/2
f 81/1/2 80/1/2 112/1/2 113/1/2
f 68/1/2 67/1/2 99/1/2 100/1/2
f 95/1/2 94/1/2 126/1/2 127/1/2
f 82/1/2 81/1/2 113/1/2 114/1/2
f 69/1/2 68/1/2 100/1/2 101/1/2
f 96/1/2 95/1/2 127/1/2 128/1/2
f 83/1/2 82/1/2 114/1/2 115/1/2
f 70/1/2 69/1/2 101/1/2 102/1/2
f 65/1/2 96/1/2 128/1/2 97/1/2
f 84/1/2 83/1/2 115/1/2 116/1/2
f 71/1/2 70/1/2 102/1/2 103/1/2
f 85/1/2 84/1/2 116/1/2 117/1/2
f 72/1/2 71/1/2 103/1/2 104/1/2
f 86/1/2 85/1/2 117/1/2 118/1/2
f 73/1/2 72/1/2 104/1/2 105/1/2
f 87/1/2 86/1/2 118/1/2 119/1/2
f 74/1/2 73/1/2 105/1/2 106/1/2
f 88/1/2 87/1/2 119/1/2 120/1/2
f 75/1/2 74/1/2 106/1/2 107/1/2
f 89/1/2 88/1/2 120/1/2 121/1/2
f 76/1/2 75/1/2 107/1/2 108/1/2
f 45/1/3 46/1/3 110/1/3 109/1/3
f 20/1/4 19/1/4 83/1/4 84/1/4
f 46/1/5 47/1/5 111/1/5 110/1/5
f 21/1/6 20/1/6 84/1/6 85/1/6
f 47/1/7 48/1/7 112/1/7 111/1/7
f 22/1/8 21/1/8 85/1/8 86/1/8
f 48/1/9 49/1/9 113/1/9 112/1/9
f 23/1/10 22/1/10 86/1/10 87/1/10
f 49/1/11 50/1/11 114/1/11 113/1/11
f 24/1/12 23/1/12 87/1/12 88/1/12
f 50/1/13 51/1/13 115/1/13 114/1/13
f 25/1/14 24/1/14 88/1/14 89/1/14
f 51/1/15 52/1/15 116/1/15 115/1/15
f 26/1/16 25/1/16 89/1/16 90/1/16
f 52/1/17 53/1/17 117/1/17 116/1/17
f 27/1/18 26/1/18 90/1/18 91/1/18
f 53/1/19 54/1/19 118/1/19 117/1/19
f 28/1/20 27/1/20 91/1/20 92/1/20
f 2/1/11 1/1/11 65/1/11 66/1/11
f 54/1/21 55/1/21 119/1/21 118/1/21
f 29/1/22 28/1/22 92/1/22 93/1/22
f 3/1/13 2/1/13 66/1/13 67/1/13
f 55/1/23 56/1/23 120/1/23 119/1/23
f 30/1/3 29/1/3 93/1/3 94/1/3
f 4/1/15 3/1/15 67/1/15 68/1/15
f 56/1/24 57/1/24 121/1/24 120/1/24
f 31/1/5 30/1/5 94/1/5 95/1/5
f 5/1/17 4/1/17 68/1/17 69/1/17
f 57/1/25 58/1/25 122/1/25 121/1/25
f 32/1/7 31/1/7 95/1/7 96/1/7
f 6/1/19 5/1/19 69/1/19 70/1/19
f 58/1/26 59/1/26 123/1/26 122/1/26
f 1/1/9 32/1/9 96/1/9 65/1/9
f 7/1/21 6/1/21 70/1/21 71/1/21
f 59/1/27 60/1/27 124/1/27 123/1/27
f 33/1/28 34/1/28 98/1/28 97/1/28
f 8/1/23 7/1/23 71/1/23 72/1/23
f 60/1/29 61/1/29 125/1/29 124/1/29
f 34/1/30 35/1/30 99/1/30 98/1/30
f 9/1/24 8/1/24 72/1/24 73/1/24
f 61/1/31 62/1/31 126/1/31 125/1/31
f 35/1/4 36/1/4 100/1/4 99/1/4
f 10/1/25 9/1/25 73/1/25 74/1/25
f 62/1/32 63/1/32 127/1/32 126/1/32
f 36/1/6 37/1/6 101/1/6 100/1/6
f 11/1/26 10/1/26 74/1/26 75/1/26
f 63/1/33 64/1/33 128/1/33 127/1/33
f 37/1/8 38/1/8 102/1/8 101/1/8
f 12/1/27 11/1/27 75/1/27 76/1/27
f 64/1/34 33/1/34 97/1/34 128/1/34
f 38/1/10 39/1/10 103/1/10 102/1/10
f 13/1/29 12/1/29 76/1/29 77/1/29
f 39/1/12 40/1/12 104/1/12 103/1/12
f 14/1/31 13/1/31 77/1/31 78/1/31
f 40/1/14 41/1/14 105/1/14 104/1/14
f 15/1/32 14/1/32 78/1/32 79/1/32
f 41/1/16 42/1/16 106/1/16 105/1/16
f 16/1/33 15/1/33 79/1/33 80/1/33
f 42/1/18 43/1/18 107/1/18 106/1/18
f 17/1/34 16/1/34 80/1/34 81/1/34
f 43/1/20 44/1/20 108/1/20 107/1/20
f 18/1/28 17/1/28 81/1/28 82/1/28
f 44/1/22 45/1/22 109/1/22 108/1/22
f 19/1/30 18/1/30 82/1/30 83/1/30
